<?xml version="1.0" encoding="utf-8"?>
<!-- Generator: Adobe Illustrator 24.1.2, SVG Export Plug-In . SVG Version: 6.00 Build 0)  -->
<svg version="1.1" id="Capa_1" xmlns="http://www.w3.org/2000/svg" xmlns:xlink="http://www.w3.org/1999/xlink" x="0px" y="0px"
	 viewBox="0 0 311.8 283.1" style="enable-background:new 0 0 311.8 283.1;" xml:space="preserve">
<style type="text/css">
	.st0{fill:#0063AF;}
	.st1{fill:#E73439;}
	.st2{fill:#FFFFFF;}
	.st3{fill:none;}
</style>
<g>
	<g>
		<g>
			<rect class="st0" width="127.7" height="283.1"/>
			<rect x="127.7" class="st1" width="184.1" height="283.1"/>
			<path class="st2" d="M152.3,268c-1.9,0.9-3.4,1.3-5.2,1.3c-4.1,0-6.1-2.9-6.1-7.3c0-4.2,2.1-7.1,6.4-7.1c2.1,0,3.5,0.5,4.6,1.2
				l-1.1,2c-0.8-0.5-1.9-0.9-3.4-0.9c-2.5,0-3.6,1.9-3.6,4.6c0,3.3,1.2,5.1,3.5,5.1c0.9,0,1.8-0.2,2.4-0.5V264h-1.9l-0.1-2h4.5V268z
				"/>
			<path class="st2" d="M163.5,264c0,3.4-1.7,5.3-4.7,5.3c-3,0-4.7-1.8-4.7-5.3c0-3,1.6-5.2,4.7-5.2
				C161.8,258.8,163.5,261.1,163.5,264 M160.7,264c0-2.4-0.7-3.3-2-3.3c-1.3,0-1.9,0.9-1.9,3.3c0,2.3,0.6,3.3,1.9,3.3
				C160.1,267.3,160.7,266.4,160.7,264"/>
			<path class="st2" d="M168,260c0.5-0.6,1.5-1.2,2.7-1.2c2.4,0,4.1,1.7,4.1,5.2c0,3.5-2.1,5.3-4.4,5.3c-1.4,0-2.3-0.6-2.9-1.4
				l-0.5,1.2h-1.4v-14.2h2.7v3.5L168,260z M168.2,266.3c0.4,0.6,1.1,1,1.8,1c1.2,0,2-0.9,2-3.3c0-2.4-0.8-3.2-2-3.2
				c-0.7,0-1.4,0.4-1.9,0.8V266.3z"/>
			<path class="st2" d="M177.6,269.1V261l-1.1-0.2V259h3.8v10.1H177.6z M177.5,254.9h2.7v2.4h-2.7V254.9z"/>
			<path class="st2" d="M185,264.8c0,1.6,0.9,2.5,2.6,2.5c1,0,2.1-0.4,2.9-0.9l0.5,1.9c-0.8,0.4-2.2,1-3.8,1c-3.1,0-5-1.9-5-5.3
				c0-3.1,1.5-5.2,4.7-5.2c3,0,4.3,2.3,4.3,4.8v1.2H185z M186.9,260.8c-1.3,0-1.9,1.2-1.9,2.4h3.7
				C188.7,261.9,188.3,260.8,186.9,260.8"/>
			<path class="st2" d="M199,261.3c-0.3-0.1-0.8-0.2-1.3-0.2c-0.7,0-1.4,0.3-1.8,0.7v7.3h-2.7V259h1.9c0.1,0.5,0.2,0.9,0.3,1.4h0.1
				c0.3-0.7,1.2-1.5,2.4-1.5c0.5,0,0.9,0.1,1.2,0.1C199,259.7,199,260.5,199,261.3"/>
			<path class="st2" d="M206.9,269.1v-6c0-1.5-0.6-2.2-1.8-2.2c-0.7,0-1.3,0.3-1.8,0.6v7.6h-2.7V259h1.8l0.4,1.1
				c0.6-0.7,1.7-1.4,3.2-1.4c2.5,0,3.5,1.5,3.5,4v6.2H206.9z"/>
			<path class="st2" d="M220.8,264c0,3.4-1.7,5.3-4.7,5.3c-3,0-4.7-1.8-4.7-5.3c0-3,1.6-5.2,4.7-5.2
				C219.1,258.8,220.8,261.1,220.8,264 M218.1,264c0-2.4-0.7-3.3-2-3.3c-1.2,0-1.9,0.9-1.9,3.3c0,2.3,0.6,3.3,1.9,3.3
				C217.4,267.3,218.1,266.4,218.1,264"/>
			<path class="st2" d="M233.9,259.8c-0.2-0.6-0.3-1.1-0.3-1.8v-3h2.7v14.2h-2.2l-0.3-1.1c-0.4,0.6-1.4,1.3-2.7,1.3
				c-2.3,0-4.1-1.6-4.1-5.2c0-3.3,1.9-5.2,4.3-5.2C232.5,258.8,233.3,259.2,233.9,259.8 M233.6,261.3c-0.4-0.2-1-0.5-1.8-0.5
				c-1.3,0-2.1,0.9-2.1,3.2c0,2.4,0.8,3.3,2,3.3c0.7,0,1.4-0.3,1.9-0.9V261.3z"/>
			<path class="st2" d="M241,264.8c0,1.6,0.9,2.5,2.6,2.5c1,0,2.1-0.4,2.9-0.9l0.5,1.9c-0.8,0.4-2.2,1-3.8,1c-3.1,0-5-1.9-5-5.3
				c0-3.1,1.5-5.2,4.7-5.2c3,0,4.2,2.3,4.2,4.8v1.2H241z M242.9,260.8c-1.3,0-1.9,1.2-1.9,2.4h3.7
				C244.7,261.9,244.3,260.8,242.9,260.8"/>
			<path class="st2" d="M259.5,269.3c-3.9,0-6-2.6-6-7.2c0-4.3,2.1-7.1,6-7.1c1.9,0,3.6,0.4,4.7,1.2l-1,2.1c-0.7-0.5-2-0.9-3.4-0.9
				c-2.3,0-3.4,1.7-3.4,4.7c0,3.2,1.1,4.9,3.4,4.9c1.4,0,2.7-0.6,3.7-1.3l0.9,2.2C262.9,268.8,261.3,269.3,259.5,269.3"/>
			<path class="st2" d="M266.1,269.1v-14.2h2.7v3.7c0,0.7-0.2,1.4-0.3,1.6c0.6-0.7,1.4-1.4,2.8-1.4c2.9,0,3.7,1.5,3.7,4v6.2h-2.7v-6
				c0-0.3,0-0.5-0.1-0.6c-0.1-1.1-0.7-1.6-1.7-1.6c-0.7,0-1.3,0.3-1.8,0.6v7.6H266.1z"/>
			<path class="st2" d="M278.1,269.1V261l-1.2-0.2V259h3.8v10.1H278.1z M278,254.9h2.7v2.4H278V254.9z"/>
			<path class="st2" d="M283.2,266.4v-11.5h2.6v11.4c0,0.8,0.5,1,1.6,1v1.9c0,0-0.8,0.2-1.5,0.2C284,269.3,283.2,268.2,283.2,266.4"
				/>
			<path class="st2" d="M291.6,264.8c0,1.6,0.9,2.5,2.6,2.5c1,0,2.1-0.4,2.9-0.9l0.5,1.9c-0.8,0.4-2.2,1-3.8,1c-3.1,0-5-1.9-5-5.3
				c0-3.1,1.5-5.2,4.7-5.2c3,0,4.2,2.3,4.2,4.8v1.2H291.6z M293.4,260.8c-1.3,0-1.9,1.2-1.9,2.4h3.7
				C295.2,261.9,294.8,260.8,293.4,260.8"/>
		</g>
		<g>
			<g>
				<g>
					<path class="st2" d="M66.5,38.8c0.3-0.2,0.9-0.7,0.4-1.7c-0.2-0.5-0.8-0.5-0.6-0.5c3.2-0.8,4.9-5.4,4.8-7.2
						c1.6,1.5,5.3,2,8-0.3c1.7-1.7,2.6-6-0.4-8.2c-1.5-1.1-4.2-1.2-5.9,0.1c-0.5-0.9-1.5-1.5-2.4-1.5c0-0.3,0-2.4-1.2-3.8
						c-1.6-1.7-6.1-1.9-7.7,0c-3.2-0.8-7.4,0.7-7.2,5.7c-2.3-0.9-3.6-0.9-4.8-0.8c-1.1,0.1-2.6,1.1-3.2,1.8
						c-0.2,0.3-0.5,0.7-0.7,1.1c-0.4,0.7-0.7,1.7-0.5,2.7c0.2,1.8,1.1,3.3,2.4,4c1.8,1,4.1,0.9,4.9,0.7c0.6-0.1,1.3-0.4,2-1.1
						c0.2-0.2,0.4-0.6,0.7-0.6c0,0.5-0.2,2.9,2.5,4c0,0.1,0.1,0.2,0.1,0.4c0.9,3.3,3.1,2.9,3.1,3.2c-1,0.6-0.6,1.5-0.3,1.9
						c1.5-0.5,2.6-0.5,3-0.5C63.9,38.3,65,38.4,66.5,38.8z"/>
					<g>
						<polygon class="st3" points="63.2,42.2 61.2,48.9 53.9,48.9 54,48.9 59.8,53.1 57.6,59.7 63.2,55.4 68.8,59.7 66.5,53.1 
							72.4,48.9 72.4,48.9 65.2,48.9 						"/>
						<path class="st2" d="M74.1,48.9c0-3.3,2.3-5.9,2.3-6c0.2-0.3,0.3-0.5,0.3-0.7c0-0.3-0.3-0.5-0.3-0.5c-0.6-0.4-2.1-1.3-2.1-1.3
							l-0.1-0.1H74c-0.2,0-0.3,0.1-0.5,0.2c-0.4,0.3-1.1,0.9-2.4,0.9c-0.2,0-0.5,0-0.7-0.1c-0.7-0.1-1.8-0.7-1.8-0.7
							c-0.4-0.2-0.8-0.4-1-0.5l-0.1,0c-1.9-0.8-3.5-0.8-3.9-0.8c-0.4,0-2,0.1-3.9,0.8l-0.1,0c-0.1,0-0.3,0.1-0.5,0.2L57.9,41
							c-0.4,0.2-0.9,0.4-1.2,0.4c-0.2,0-0.5,0.1-0.7,0.1c-1.3,0-2-0.6-2.5-0.9c-0.2-0.1-0.3-0.2-0.5-0.2l-0.1,0l-0.1,0
							c0,0-1.5,0.9-2.1,1.3c-0.1,0-0.3,0.2-0.4,0.6c0,0.2,0,0.4,0.3,0.7c0.1,0.1,2.3,2.7,2.3,6c0.1,0.4,0.2,2.4-1.5,5.4
							c-0.1,0.2-2,3.6,0.1,6.6c0,0,1.6,2.9,6.1,2.9c0.4,0,3.7,0.1,4.9,2.2c0,0.1,0.6,0.9,0.8,1.4l0.3,0.5l0.3-0.5
							c0.2-0.4,0.7-1.3,0.8-1.4c1.1-2.1,4.5-2.2,4.8-2.2c4.5,0,6.1-2.8,6.1-2.8c2.1-3.1,0.1-6.7,0.1-6.7
							C73.9,51.4,74.1,49.4,74.1,48.9z M72.4,48.9l-5.8,4.2l2.2,6.6l-5.6-4.3l-5.6,4.3l2.2-6.6L54,48.9l0,0h7.2l2-6.7l2,6.7
							L72.4,48.9L72.4,48.9z"/>
						<g>
							<path class="st3" d="M43.6,81.1c3.2,3.3,7.8,1.5,7.8,1.5c0.7-0.1,1.1-2.4,1.3-4.1c-2.8-0.4-5.4-0.8-8-1.5
								C43.9,79.1,43.6,81.1,43.6,81.1z"/>
							<path class="st3" d="M42.8,67.3c-0.1-0.1-0.2-0.2-0.4-0.2c-0.4-0.1-0.7,0.3-1.2,0.2c-0.4-0.1-3.7-2.6-3.9-2.7
								c-0.7-0.5-1.8-1.1-2.4-1.8c-0.4-0.5-0.1-1.1-0.1-1.7c0-0.4-0.6-1.5-1.5-1.8c-0.2,1-1.6,4.7-6,5.6c-0.6,2.4,0.3,7,0.9,7.6
								c0.4,0.1,0.8,0.3,1.1,0.5c0-0.9,0.3-1.5,0.3-1.5c1.2-2.5,4.1-1.7,4.1-1.7c1,0.3,1.2,1.2,1.2,1.2c0.4,2-1.3,2.2-1.3,2.2
								c-1.2,0.1-1.2-0.9-1.2-0.9c-0.1-0.9,1.2-1,1.2-1c-1.1-1.9-4.6,1.2-2.3,4.1c0.2,0.3,0.5,0.1,0.5,0.1c6.9-3.4,8-4.9,8-4.9
								c1.5-1.3,2.6-2.1,3.4-2.7C43,67.5,42.8,67.3,42.8,67.3z"/>
							<path class="st3" d="M75.5,39.7c0.1,0.1,0.3,0.2,0.4,0.3C75.7,40,75.6,39.8,75.5,39.7z"/>
							<path class="st3" d="M77.7,41.5c-0.2-0.2-0.5-0.4-0.7-0.6C77.2,41.1,77.4,41.3,77.7,41.5L77.7,41.5z"/>
							<path class="st3" d="M76.1,40.3c0.2,0.2,0.4,0.3,0.7,0.5C76.6,40.6,76.3,40.4,76.1,40.3z"/>
							<path class="st3" d="M42.3,79.9c0.2-0.3,0.5-1.5,0.5-1.5c0.2-0.7,0.4-1.2,0.7-1.8c-0.8-0.2-1.5-0.5-2.2-0.7
								C41.3,78.2,42.3,79.9,42.3,79.9z"/>
							<path class="st3" d="M74.8,78.5c0.2,1.8,0.6,4,1.3,4.1c0,0,4.6,1.8,7.8-1.5c0,0-0.2-2-1.1-4.2C80.3,77.6,77.6,78.1,74.8,78.5
								z"/>
							<path class="st3" d="M84.8,78.5c0,0,0.3,1.2,0.5,1.5c0,0,1-1.7,1-4c-0.7,0.2-1.5,0.5-2.2,0.7C84.4,77.2,84.6,77.8,84.8,78.5z
								"/>
							<path class="st3" d="M50.4,72.1c-1.5,0-2.7,0.6-3.6,1.5c1.7,0.4,3.8,0.8,6,1.1C52.5,72.1,50.4,72.1,50.4,72.1z"/>
							<path class="st3" d="M81.9,73.3c1.4-0.3,2.6-0.7,3.6-1c-0.2-0.4-0.4-0.8-0.7-1.2c0,0-3.9-4.7-10.9-2.1
								c-0.1,0,0.3,1.2,2.2,1.6C76.3,70.7,79.4,70.9,81.9,73.3z"/>
							<path class="st3" d="M77.1,72.1c0,0-2.1,0-2.4,2.6c2.2-0.3,4.3-0.7,6-1.1C79.8,72.7,78.6,72.2,77.1,72.1z"/>
							<path class="st3" d="M57.4,70.5c-0.5-0.7-1.2-0.7-1.2-0.7c-1,0-1.2,2.4-1.5,5.1c2.2,0.2,4.5,0.4,7.1,0.5
								C60.7,73.2,58.3,71.7,57.4,70.5z"/>
							<path class="st3" d="M42.8,71.1c-0.3,0.4-0.5,0.8-0.7,1.2c1,0.3,2.2,0.7,3.6,1c2.5-2.4,5.5-2.6,5.8-2.6
								c1.9-0.4,2.4-1.6,2.2-1.6C46.7,66.4,42.8,71.1,42.8,71.1z"/>
							<path class="st3" d="M71.4,69.8c0,0-0.7,0-1.2,0.7c-0.9,1.2-3.3,2.7-4.3,4.9c2.5-0.1,4.9-0.2,7.1-0.5
								C72.6,72.1,72.4,69.8,71.4,69.8z"/>
							<path class="st2" d="M113.2,76.7c-0.7-0.9-2.7-0.4-2.7-0.4c1-3.1-1.8-3.9-1.8-3.9c-1-0.3-1.7-0.1-2.1,0.2c0,0,0,0,0,0
								c0,0,0,0,0,0c-0.1,0.1-0.1,0.1-0.2,0.2c-0.3,0.3-0.4,0.6-0.4,1c0,0.8,0.7,1.5,1.5,1.5c0.3,0,0.6-0.1,0.9-0.3
								c0.3-0.2,0.5-0.5,0.6-0.9c0.4,0.3,0.6,0.7,0.6,0.7c0.8,2.6-2.1,3.6-2.1,3.6c-6.6,2-10.6-1.4-10.6-1.4l1.1-0.6
								c0.4-0.2,0.8-0.2,1-0.2c0,0.1,0,0.1,0,0.2c0,0.7,0.6,1.3,1.3,1.3c0.7,0,1.3-0.6,1.3-1.3c0-0.5-0.3-0.8-0.3-0.8
								c-0.8-1.2-3.4-0.4-3.4-0.4c0.9-2.2,0.1-3.7,0.1-3.7c-1.2-2.5-4.1-1.7-4.1-1.7c-1,0.3-1.2,1.2-1.2,1.2c-0.4,2,1.3,2.2,1.3,2.2
								c1.2,0.1,1.2-0.9,1.2-0.9c0.2-0.9-1.2-1-1.2-1c1.1-1.9,4.6,1.2,2.3,4.1c-0.2,0.3-0.5,0.1-0.5,0.1c-4.1-2-6.1-3.3-7.1-4.1
								c-0.1-1.1-1.1-1.7-0.9-2c0.2-0.1,0.7,0.2,1.1-0.3c0.1-0.2,0.4-1.9,0.6-3.2c3.6,1.7,6.7,1.2,7.3,1c0.3-0.1,0.6-0.4,0.6-0.8
								c0.1-1.4-3.5-9.5-3.6-12.4c1.7,0.8,2.7-1.8,3-2.6c2.3,1,3,22.1,4.8,22.8c0.9,0.4,1.2-1.1,1.3-1.3c2.8-9.4,2.9-18.5,2.7-21.6
								c-0.3-4.8-0.7-9.1-1.8-13c-0.7-2.4-2.1-7.4-5.3-8.1c-1.5-0.3-2.6,1.1-2.6,2.3c0,1.1,0.8,1.6,0.4,2.7c-0.4,0.7-0.8,1.5-1,2.2
								c-0.2,0.8,0.5,1.1,0.3,1.9c-1-0.2-1.5,0.7-3.1,0.3c1-0.5,1.1-3.5-0.2-4c-0.2-0.1-0.4-0.1-0.4-0.3c0,0,0.4-0.4,0.6-0.9
								c0.7-1.5,0.7-2.8,0.1-3.8c0.5,0,1.1-0.9,1.2-1.7l0,0c0,0,0,0,0-0.1v0c0-0.2,0-0.9,0.3-1.5c0.1-0.2,0-0.4-0.2-0.5
								c-0.2-0.1-0.4,0-0.5,0.2c-0.3,0.7-1.1,0.3-0.7-0.4c0.1-0.2,0-0.4-0.2-0.5c-0.2-0.1-0.4,0-0.5,0.2c-0.3,0.6-1,0.3-0.7-0.4
								c0.1-0.2,0-0.4-0.2-0.5c-0.2-0.1-0.4,0-0.5,0.2C90,26,89.2,25.6,89.5,25c0.1-0.2,0-0.5-0.2-0.5c-0.2-0.1-0.4,0-0.5,0.2
								c-0.3,0.7-0.6,1-0.9,1.3c-0.7,0.1-0.5,0.9-0.4,1.5c-1.3-0.3-2.3,0.7-2.4,1.6H85c-1.1,0-2.1,0.6-2.1,1.6c0,0.6,0.7,1.3,1,1.3
								c0.1,0-0.1-0.6,0.5-0.6c0.5,0,1.3,0.4,1.4,0.9c0.1,0.6-0.3,1.9,1.4,2.1c0,0,0,0.3,0,0.6c-0.6,0-0.8-0.1-1.4,0
								c-1.1,0.2-2.7,0.8-3.1,1.9c-0.1,0.2-0.1,0.6-0.1,0.9c0,0.2,0.2,0.5,0.2,0.8c0,0.1-0.3,0.4-0.4,0.5c-0.5,0.5-1.3,1-2.1,1
								c-0.9,0-1.7-0.5-2-1c-1.1-1.5,0.3-4.2,0.3-5.2c-0.1-2.6-3.4-1.1-4.7-0.4c-1.6,0.8-2.8,2.1-3.9,3.5c-0.6,0.7-1.2,1.6-1.5,2.4
								c-0.1,0.1-0.2,0.2-0.3,0.2c0.7,0.3,1.9,0.7,2.8,0.8c0,0,1.8,0.2,3.1-0.8c0,0,0.2-0.2,0.5-0.2c0.2,0,0.4,0.1,0.5,0.2
								c0,0,0.2,0.2,0.4,0.3c0.1,0.1,0.3,0.2,0.4,0.3c0.1,0.1,0.2,0.1,0.2,0.2c0.2,0.2,0.5,0.4,0.7,0.5c0,0,0.1,0.1,0.1,0.1
								c0.3,0.2,0.5,0.4,0.7,0.6l0,0c0.3,0.2,0.5,0.4,0.7,0.5l0,0c0,0,0.1,0.1,0.1,0.2c0,0.1,0,0.2-0.1,0.3c0,0-0.1,0.2-0.4,0.4
								c-0.4,0.6-1.2,1.7-1.7,3c0.6,1.1,1.7,2.4,3.2,2.4c1.2,0,1.7-0.6,1.9-1.3c0,0,0.1,0.1,0.1,0.1c0.1-0.1,0.8,3.4,1.7,4.4
								c-0.8,0.4-2.1,1.7-1.4,5.2c-0.7-0.5-1.9-1.5-2.5-2.1c-0.4-0.7-1-2.4-3-2.6c0.3,0.9,0.7,1.9,1.3,3c0,0,1.2,2.3,0.8,4.8
								c0.8-0.9,0.7-3.2,0.7-3.2c0,0,0.1-0.1,0.2-0.1c0.2,0,1,1.6,2.4,2c1.9,3.2,4,5.2,6,6.5c0,0.8,0.1,2.6-0.4,2.6
								c-1.6,0.4-3.1-0.7-4.5-0.7c-0.1-0.1-0.2-0.1-0.2-0.1c-6.1-2.9-14.1,3.4-15.4,4.6c-0.7,0.6-1.5-0.2-1.5-0.2
								c-0.5-0.6-1.1-0.9-1.7-0.8c-0.6-0.1-1.2,0.2-1.7,0.8c0,0-0.8,0.9-1.5,0.2c-1.3-1.2-8.5-6.8-14.5-4.9c0-0.3-0.8-0.5-1-0.6
								c-0.5-0.1-0.9-0.5-1.2-0.7c-0.6-0.3-1.7-0.1-2.4-0.2c-0.3,0-0.7-0.2-0.9-0.3c-1-0.6-2-1.3-2.6-2.2c-0.1-0.1-0.3-0.5-0.4-0.5
								c-0.3-0.4-0.4-0.6-0.7-1.3c-0.3-1.2,0.2-2.4,0.4-3.6c0.1-0.9,0.1-0.9,0.2-1.9c3.8-1.3,5.3-4.1,6.2-5.6
								c0.1-0.1,0.3-0.6,0.3-0.6c0.2,0,0.3,0,0.5,0c1.5,0,2.5-0.8,4.2-0.6c0,0.1,0.2,0.8,1.3,1.2c0,1.1,0.1,2,0.5,2.8
								c0.1,0.1,0.2,0.3,0.3,0.4c0.7-1.7,0.9-3.1,0.9-3.9c-0.1-0.1-0.1-0.2-0.1-0.3c-0.4-1.8-1.2-2.3-2-2.8
								c-0.4-0.2-0.8-0.3-1.2-0.6c-0.6-0.4-1.2-0.8-1.6-1.6c0,0,0.2-0.2,0.4-0.4c1.1-1.1,1.6-2.7,2-4.5c0.8-1.1,3-0.7,3.9-0.5
								c0.2,0,0.6,0.1,0.8,0.2c0.2,0.2,0.3,0.5,0.6,0.7c0.4,0.1,0.8,0,1.2,0c0.2,0.2,0.2,0.4,0.4,0.7c0,0,0.1,0.2,0.3,0.4
								c1,0,2.5-0.6,3-0.9c-0.1,0-0.1-0.1-0.2-0.1c-0.5-0.6-1.2-1.3-1.8-1.4c-0.8-0.1-1-0.9-1.8-1c-0.2-0.1-0.9-0.2-1.2-0.1
								c-1.8,0.2-3-0.4-4.7-0.6c-1.6-0.1-1.6,1-2.2,1.8c-0.2,0.3-0.5,0.7-0.7,1c-0.4,0.4-0.9,0.4-1.5,0.8l-0.2-0.7
								c-0.1-0.5-0.3-1.1-0.7-1.6c-0.9-1.3-1.8-2.4-3.7-2.8c-0.4-0.1-0.4-0.2-0.7-0.4c-0.3-0.2-0.1-0.5,0-0.6
								c0.5-0.3,1.5-0.2,2.1-0.5c1.5-0.7,1-2,0.4-2.1c-0.8-0.1-2.1-0.5-2.4-0.7c-0.4-0.2-1-1.4-1.6-1.7c-0.7-0.2-0.4-1.3-1-1.5
								c-0.3,0-0.7,0.1-1.1,0.3c0-0.2-0.2-1.5-0.9-1.9c-0.5-0.3-0.7,0.2-0.7,0.5c0,0.3,0.7,0.6,0.9,1.8c-0.1,0.1-0.2,0.1-0.4,0.2
								c-0.1-0.5-0.3-1.2-0.8-1.5c-0.5-0.3-0.7,0.2-0.7,0.5c0,0.3,0.7,0.6,0.9,1.6c-0.2,0.1-0.3,0.2-0.4,0.4c-1-0.3-1.3-1-1.5-1
								c-0.3-0.1-0.7,0.1-0.5,0.6c0.2,0.5,1,0.8,1.5,1c-0.1,0.1-0.2,0.2-0.3,0.3c-1.2-0.2-1.5-1-1.7-1.1c-0.3-0.1-0.8,0.1-0.5,0.6
								c0.3,0.7,1.7,1,1.8,1.1c-0.2,0.3-0.3,0.6-0.3,0.8c-0.9-0.1-2.5,0.4-2.2,1.5c0.3,0.2,1.4-0.7,2.4-0.2c0.7,1,1.7,1.1,1.9,1.3
								c0.4,0.3,0.4,0.8,0.6,1.3c0.3,0.9,0.9,1.6,1.4,2.4c0.6,0.9,1.2,1.8,1.7,2.5c0.1,0.2,0.1,0.4,0.1,0.7
								c-0.7,1.1-2.7,2.3-3.5,3.1c-0.8,0.8-8.7,6.8-9.7,9.4c-0.2,0.6-0.3,1.3-0.3,2.1c-0.5,0.3-1.5,0.7-1.9,0.2
								c-0.6-0.8,0.6-1.5,0.3-2.3c-0.1-0.3-0.6-0.5-0.9-0.3c-2,1.4-1,3.9,0.3,4.5c1.4,0.6,1.6-0.9,2.6-0.3c0.3,0.1,2.8,2.4,2.3,4.1
								c0,0.1-0.1,0.3-0.2,0.4c-0.5,0.7-1.5,1.2-2.1,1.8c-1.3,0.8,1.2,6,1,8.7c-0.1,1,0.8,0.9,1.4,2.5c-0.6,0-1.2,0.2-1.5,0.6
								c0,0-0.3,0.3-0.3,0.8c0,0.7,0.6,1.3,1.3,1.3c0.7,0,1.3-0.6,1.3-1.3c0-0.1,0-0.1,0-0.2c0.3,0,0.6,0.1,1,0.2l1.1,0.6
								c0,0-4,3.4-10.6,1.4c0,0-3-0.9-2.1-3.6c0,0,0.1-0.4,0.6-0.7c0.1,0.4,0.3,0.7,0.6,0.9c0.2,0.2,0.5,0.3,0.9,0.3
								c0.8,0,1.5-0.7,1.5-1.5c0-0.4-0.2-0.8-0.4-1c-0.1-0.1-0.1-0.1-0.2-0.2c0,0,0,0,0,0c0,0,0,0,0,0c-0.4-0.3-1.1-0.5-2.2-0.2
								c0,0-2.9,0.8-1.8,3.9c0,0-1.9-0.4-2.7,0.4c0,0-0.3,0.3-0.2,0.7v0v0c0,0.2,0.1,0.4,0.2,0.6c0.2,0.3,0.5,0.5,0.9,0.5
								c0.4,0,0.7-0.2,0.9-0.4c0,0,0,0,0,0c0.1-0.1,0.3-0.2,0.7,0.1c4.4,4.5,11.5,2.7,15.4-0.4c0,0,2.2-2.2,4.6-3.5
								c0.9,0.4,2,0.7,2.9,1.1c-0.1,1.4,0.2,3.4,1.8,5.8c0,0-1.1,2.1-3,0.9c0,0-1.4-1.1-0.2-2.4c0,0,0.8-0.7,1.1,0.2
								c-0.4,0-0.7,0.4-0.7,0.8c0,0.4,0.3,0.8,0.8,0.8c0.4,0,0.7-0.3,0.8-0.7c0-0.3,0.1-1.1-0.6-1.7c0,0-0.6-0.6-1.7-0.5
								c-1.7,0.3-2.6,3.7,0.7,5.1c0,0,2.6,1.2,3.9-0.7c0,0,0-0.3,0.5,0.2c2.7,2.6,8.8,1.9,11.2,0.1c0,0,0.6-0.4,1.3-0.7
								c0,1,0.9,1.8,1.9,1.8c1,0,1.9-0.9,1.9-1.9c0-0.9-0.7-1.7-1.6-1.9c0,0-1.2-0.4-3,0.7c0,0-1.9,1.2-1.8,1c0.6-1,1-2.3,1.3-3.7
								c2.6,0.3,5.4,0.5,8.2,0.5c0,0.8-0.1,1.8-0.5,2.6c0,0-1,0.4-1,1.1c0,0-0.1,0.5,0.8,1.2c0,0,0.6,0.7,0.8,1.3
								c0,0,0.1,0.8,1.1,0.8c0.1,0,0.1,0,0.2,0c0.1,0,0.1,0,0.2,0c1.1,0,1.1-0.8,1.1-0.8c0.2-0.6,0.8-1.3,0.8-1.3
								c0.9-0.7,0.8-1.2,0.8-1.2c0-0.7-1-1.1-1-1.1c-0.3-0.8-0.4-1.8-0.5-2.6c2.8-0.1,5.5-0.3,8.2-0.5c0.3,1.4,0.7,2.7,1.3,3.7
								c0.1,0.2-1.7-1-1.7-1c-1.8-1.1-3-0.7-3-0.7c-0.9,0.2-1.6,0.9-1.6,1.9c0,1,0.8,1.9,1.9,1.9c1,0,1.9-0.8,1.9-1.8
								c0.7,0.3,1.3,0.7,1.3,0.7c2.4,1.8,8.5,2.6,11.2-0.1c0.5-0.5,0.5-0.2,0.5-0.2c1.3,1.9,3.9,0.7,3.9,0.7
								c3.3-1.4,2.3-4.9,0.7-5.1c-1.1-0.2-1.7,0.5-1.7,0.5c-0.7,0.6-0.7,1.4-0.6,1.7c0,0.4,0.3,0.7,0.8,0.7c0.4,0,0.8-0.3,0.8-0.8
								c0-0.4-0.3-0.7-0.7-0.8c0.3-0.8,1.1-0.2,1.1-0.2c1.2,1.3-0.2,2.4-0.2,2.4c-1.9,1.1-3-0.9-3-0.9c1.6-2.3,1.9-4.4,1.8-5.8
								c1-0.4,2-0.7,2.9-1.1c2.4,1.3,4.6,3.5,4.6,3.5c3.9,3,11,4.9,15.4,0.4c0.3-0.4,0.6-0.2,0.7-0.1c0,0,0,0,0,0
								c0.2,0.3,0.5,0.4,0.9,0.4c0.4,0,0.7-0.2,0.9-0.5c0.1-0.2,0.2-0.5,0.2-0.6v0v0C113.4,77,113.2,76.7,113.2,76.7z M31.9,75.3
								c0,0-0.2,0.2-0.5-0.1c-2.3-2.8,1.2-6,2.3-4.1c0,0-1.3,0-1.2,1c0,0,0,1,1.2,0.9c0,0,1.7-0.2,1.3-2.2c0,0-0.2-0.9-1.2-1.2
								c0,0-2.9-0.8-4.1,1.7c0,0-0.3,0.6-0.3,1.5c-0.3-0.3-0.7-0.5-1.1-0.5c-0.5-0.6-1.5-5.2-0.9-7.6c4.4-0.9,5.8-4.6,6-5.6
								c0.9,0.3,1.4,1.3,1.5,1.8c0.1,0.6-0.2,1.2,0.1,1.7c0.5,0.7,1.7,1.4,2.4,1.8c0.2,0.2,3.5,2.7,3.9,2.7c0.5,0.1,0.7-0.2,1.2-0.2
								c0.1,0,0.2,0.1,0.4,0.2c0,0,0.2,0.2,0.6,0.5c-0.9,0.6-2,1.4-3.4,2.7C39.9,70.4,38.8,71.9,31.9,75.3z M42.8,78.5
								c0,0-0.3,1.2-0.5,1.5c0,0-1-1.7-1.1-4c0.7,0.2,1.5,0.5,2.2,0.7C43.2,77.2,42.9,77.8,42.8,78.5z M51.4,82.6
								c0,0-4.6,1.8-7.8-1.5c0,0,0.2-2,1.1-4.2c2.6,0.7,5.2,1.2,8,1.5C52.5,80.2,52.2,82.5,51.4,82.6z M46.9,73.6
								c0.9-0.9,2.1-1.4,3.6-1.5c0,0,2.1,0,2.4,2.6C50.6,74.4,48.6,74,46.9,73.6z M51.5,70.7c-0.3,0.1-3.3,0.3-5.8,2.6
								c-1.4-0.3-2.6-0.7-3.6-1c0.2-0.4,0.4-0.8,0.7-1.2c0,0,3.9-4.7,10.9-2.1C53.8,69.1,53.4,70.2,51.5,70.7z M54.7,74.9
								c0.3-2.8,0.5-5.2,1.5-5.1c0,0,0.7,0,1.2,0.7c0.9,1.2,3.3,2.7,4.3,4.9C59.2,75.3,56.8,75.2,54.7,74.9z M65.8,75.4
								c1.1-2.2,3.5-3.7,4.3-4.9c0.5-0.7,1.2-0.7,1.2-0.7c1,0,1.2,2.4,1.5,5.2C70.7,75.2,68.3,75.3,65.8,75.4z M73.9,69.1
								c7-2.7,10.9,2.1,10.9,2.1c0.3,0.4,0.5,0.8,0.7,1.2c-1,0.3-2.2,0.7-3.6,1c-2.5-2.4-5.5-2.6-5.8-2.6
								C74.2,70.2,73.7,69.1,73.9,69.1z M77.1,72.1c1.5,0,2.7,0.6,3.6,1.5c-1.7,0.4-3.8,0.8-6,1.1C75.1,72.1,77.1,72.1,77.1,72.1z
								 M76.1,82.6c-0.7-0.1-1.1-2.4-1.3-4.1c2.8-0.4,5.4-0.8,8-1.5c0.9,2.1,1.1,4.2,1.1,4.2C80.7,84.4,76.1,82.6,76.1,82.6z
								 M85.3,79.9c-0.2-0.3-0.5-1.5-0.5-1.5c-0.2-0.7-0.4-1.2-0.7-1.8c0.7-0.2,1.5-0.5,2.2-0.7C86.3,78.2,85.3,79.9,85.3,79.9z"/>
						</g>
					</g>
				</g>
			</g>
		</g>
	</g>
</g>
<g>
	<path class="st2" d="M157.3,46.3l-0.4-14.8h-0.1c-0.3,1.9-0.6,3.2-0.9,4.2l-2.5,10.6h-5l-2.4-10.6c-0.2-1-0.5-2.4-0.9-4.2h-0.1
		l-0.2,14.8h-3.1l0.7-17.6h5.9c0,0,1.9,8.8,2.9,14.5h0.1c1.2-5.6,3.5-14.5,3.5-14.5h5.7l0.7,17.6H157.3z"/>
	<path class="st2" d="M165.1,46.3V36l-1.5-0.3v-2.1h4.9v12.7H165.1z M165,28.3h3.4v3.1H165V28.3z"/>
	<path class="st2" d="M179.5,46.3v-7.6c0-1.9-0.7-2.8-2.3-2.8c-0.9,0-1.6,0.4-2.2,0.8v9.6h-3.4V33.5h2.3l0.5,1.5
		c0.7-0.9,2.1-1.7,4-1.7c3.2,0,4.5,1.9,4.5,5.1v7.9H179.5z"/>
	<path class="st2" d="M186.8,46.3V36l-1.5-0.3v-2.1h4.9v12.7H186.8z M186.7,28.3h3.4v3.1h-3.4V28.3z"/>
	<path class="st2" d="M196.2,36.9c0,2,5.5,1.4,5.5,5.5c0,2.3-1.7,4.1-5,4.1c-1.5,0-3-0.4-3.8-0.9l0.7-2.4c0.6,0.4,1.8,0.9,3,0.9
		c1.1,0,1.9-0.6,1.9-1.4c0-2.3-5.4-1.5-5.4-5.9c0-1.9,1.4-3.6,4.9-3.6c1.3,0,2.7,0.3,3.6,0.6l-0.5,2.5c-0.9-0.4-2-0.7-3.1-0.7
		C196.8,35.7,196.2,36.2,196.2,36.9z"/>
	<path class="st2" d="M209.1,46.5c-2.3,0-3.7-1.1-3.7-4.3V36h-1.9v-2.4h1.9v-2.2l3.4-1.1v3.3h3.4V36h-3.4v6.2c0,0.9,0.4,1.5,1.4,1.5
		c0.7,0,1.4-0.2,2-0.5l0.5,2.5C211.8,46.1,210.4,46.5,209.1,46.5z"/>
	<path class="st2" d="M217,40.8c0,2,1.1,3.1,3.3,3.1c1.3,0,2.6-0.5,3.7-1.1l0.6,2.4c-1.1,0.6-2.8,1.2-4.8,1.2
		c-3.9,0-6.3-2.4-6.3-6.7c0-3.9,1.9-6.6,6-6.6c3.8,0,5.4,2.9,5.4,6.1v1.5H217z M219.4,35.8c-1.7,0-2.4,1.5-2.4,3h4.7
		C221.6,37.2,221.1,35.8,219.4,35.8z"/>
	<path class="st2" d="M234.7,36.4c-0.4-0.1-1-0.2-1.6-0.2c-0.9,0-1.7,0.4-2.3,0.9v9.3h-3.4V33.5h2.4l0.4,1.7h0.1c0.4-0.9,1.5-2,3-2
		c0.7,0,1.2,0.1,1.5,0.2L234.7,36.4z"/>
	<path class="st2" d="M237.8,46.3V36l-1.5-0.3v-2.1h4.9v12.7H237.8z M237.7,28.3h3.4v3.1h-3.4V28.3z"/>
	<path class="st2" d="M255.7,39.9c0,4.3-2.2,6.7-6,6.7c-3.8,0-6-2.3-6-6.7c0-3.7,2.1-6.6,6-6.6C253.6,33.3,255.7,36.1,255.7,39.9z
		 M252.2,39.9c0-3.1-0.9-4.1-2.5-4.1c-1.6,0-2.5,1.1-2.5,4.1c0,3,0.8,4.2,2.5,4.2C251.4,44.1,252.2,42.9,252.2,39.9z"/>
	<path class="st2" d="M272.2,34.5c-0.2-0.7-0.3-1.4-0.3-2.3v-3.8h3.4v17.9h-2.8l-0.4-1.4c-0.5,0.8-1.7,1.7-3.4,1.7
		c-2.9,0-5.2-2.1-5.2-6.6c0-4.2,2.4-6.6,5.5-6.6C270.4,33.3,271.5,33.8,272.2,34.5z M271.9,36.5c-0.5-0.3-1.3-0.6-2.3-0.6
		c-1.6,0-2.6,1.1-2.6,4.1c0,3,1,4.2,2.6,4.2c0.9,0,1.7-0.4,2.4-1.1V36.5z"/>
	<path class="st2" d="M281.3,40.8c0,2,1.1,3.1,3.3,3.1c1.3,0,2.6-0.5,3.7-1.1l0.7,2.4c-1.1,0.6-2.8,1.2-4.8,1.2
		c-3.9,0-6.3-2.4-6.3-6.7c0-3.9,1.9-6.6,6-6.6c3.8,0,5.4,2.9,5.4,6.1v1.5H281.3z M283.7,35.8c-1.7,0-2.4,1.5-2.4,3h4.7
		C285.9,37.2,285.4,35.8,283.7,35.8z"/>
	<path class="st2" d="M147.1,71c-2.3,0-4.3-0.8-5.7-1.9l1.3-2.7c1,0.9,2.9,1.7,4.5,1.7c1.6,0,2.7-1,2.7-2.3c0-3.7-8.1-1.9-8.1-8.1
		c0-2.7,2.1-4.8,6.2-4.8c2.1,0,3.8,0.4,5.2,1.2l-1.1,2.7c-1-0.6-2.5-1-4.1-1c-1.6,0-2.6,0.5-2.6,1.8c0,3.1,8.2,1.9,8.2,7.9
		C153.4,68.4,151.1,71,147.1,71z"/>
	<path class="st2" d="M163.9,70.8l-0.5-1.5c-0.7,0.9-1.9,1.8-3.7,1.8c-2.5,0-4.3-1.6-4.3-4.1c0-2.4,1.7-3.8,4.8-3.8h2.7v-0.7
		c0-1.6-0.9-2.2-2.2-2.2c-1.5,0-2.8,0.4-3.8,0.9l-0.9-2.4c1.3-0.5,3-1,5-1c3.6,0,5.2,1.7,5.2,4.9v8.1H163.9z M162.9,65.2h-2.1
		c-1.4,0-2.1,0.7-2.1,1.6c0,1.2,0.6,1.9,1.9,1.9c0.8,0,1.6-0.4,2.3-0.9V65.2z"/>
	<path class="st2" d="M169.2,67.4V52.8h3.4v14.4c0,1.1,0.6,1.2,2.1,1.2v2.4c0,0-1,0.2-1.9,0.2C170.1,71,169.2,69.7,169.2,67.4z"/>
	<path class="st2" d="M185.7,70.8l-0.5-1.6c-0.6,0.8-1.9,1.8-4,1.8c-3.2,0-4.6-1.8-4.6-5.3V58h3.4v7.7c0,2,0.7,2.7,2.2,2.7
		c0.9,0,1.7-0.3,2.3-0.8V58h3.5v12.7H185.7z"/>
	<path class="st2" d="M199,59c-0.2-0.7-0.3-1.4-0.3-2.3v-3.8h3.4v17.9h-2.8l-0.4-1.4c-0.5,0.8-1.7,1.7-3.4,1.7
		c-2.9,0-5.2-2.1-5.2-6.6c0-4.2,2.4-6.6,5.5-6.6C197.2,57.8,198.3,58.3,199,59z M198.7,61c-0.5-0.3-1.3-0.6-2.3-0.6
		c-1.6,0-2.6,1.1-2.6,4.1c0,3,1,4.2,2.6,4.2c0.9,0,1.7-0.4,2.4-1.1V61z"/>
</g>
</svg>
