<?xml version="1.0" encoding="utf-8"?>
<!-- Generator: Adobe Illustrator 24.1.0, SVG Export Plug-In . SVG Version: 6.00 Build 0)  -->
<svg version="1.1" id="Capa_1" xmlns="http://www.w3.org/2000/svg" xmlns:xlink="http://www.w3.org/1999/xlink" x="0px" y="0px"
	 viewBox="0 0 145 67" style="enable-background:new 0 0 145 67;" xml:space="preserve">
<style type="text/css">
	.st0{fill:#FFFFFF;}
	.st1{fill:#1061B5;}
	.st2{fill:#E23634;}
</style>
<g>
	<path class="st0" d="M8.7,15.4v21.5H7V15.4H1.1v-1.5h14.1v1.5H8.7z"/>
	<path class="st0" d="M24.6,37.2c-6.1,0-8.6-5.5-8.6-12c0-6.1,2.3-11.6,8.6-11.6c6.4,0,8.7,5.4,8.7,11.6
		C33.2,31.3,30.8,37.2,24.6,37.2z M24.6,15c-5.2,0-6.9,5.4-6.9,10.2c0,5.2,1.3,10.6,6.9,10.6c5.4,0,6.9-5.3,6.9-10.6
		C31.5,20.3,29.9,15,24.6,15z"/>
	<path class="st0" d="M57.5,36.9l-0.7-21.5h-0.1L54.8,21l-5.5,15.9h-1.9l-5.3-16.2l-1.8-5.3h-0.1l-0.7,21.5h-1.7l0.8-22.9h3.1
		l6.7,20.9h0l7-20.9h2.9l0.7,22.9H57.5z"/>
	<path class="st0" d="M64.3,36.9h-1.6L69,13.9h4.7l5.7,22.9h-1.8l-1.5-6.2H66L64.3,36.9z M70.2,15.3l-3.8,13.8h9.4l-3.4-13.8H70.2z"
		/>
	<path class="st0" d="M96.8,37.2c-2.9,0-5.3-0.6-7-1.2V13.9h5.9c6.2,0,9.9,2.8,9.9,11.3C105.6,32.9,102.3,37.2,96.8,37.2z
		 M95.5,15.3h-4v19.6c1.1,0.4,3.1,0.8,5.4,0.8c4.6,0,7-3.2,7-10.6C103.8,18.1,101.2,15.3,95.5,15.3z"/>
	<path class="st0" d="M110,36.9V13.9h12v1.5h-10.3v9.1h8.3l-0.3,1.5h-7.9v9.5H122v1.4H110z"/>
	<path class="st0" d="M22.4,64.9l-0.7-21.5h-0.1L19.8,49l-5.5,15.9h-1.9L7.1,48.7l-1.8-5.3H5.3L4.6,64.9H2.9l0.8-22.9h3.1l6.7,20.9
		h0l7-20.9h2.9l0.7,22.9H22.4z"/>
	<path class="st0" d="M44,56.4c0,4.8-2.2,8.8-7.3,8.8c-5.2,0-7.4-4-7.4-8.8V41.9H31v14.2c0,4.3,1.3,7.6,5.7,7.6
		c4.2,0,5.6-3.3,5.6-7.6V41.9H44V56.4z"/>
	<path class="st0" d="M48.8,64.9V41.9h12v1.5H50.5v9.1h8.3L58.4,54h-7.9v9.5h10.3v1.4H48.8z"/>
	<path class="st0" d="M69.6,65.2c-2.3,0-5-1-6.8-2.3l0.7-1.4c1.4,1.2,3.9,2.2,6.2,2.2c3.3,0,5.2-2,5.2-4.9c0-6.6-11.8-4.2-11.8-11.8
		c0-3,2.5-5.5,6.9-5.5c2.9,0,5.2,0.9,6.4,1.7l-0.6,1.4c-0.9-0.6-3.1-1.5-5.7-1.5c-3.7,0-5.2,1.9-5.2,4.1c0,5.9,11.8,3.9,11.8,11.7
		C76.7,62.4,74.1,65.2,69.6,65.2z"/>
	<path class="st0" d="M86.1,43.4v21.5h-1.7V43.4h-5.9v-1.5h14.1v1.5H86.1z"/>
	<path class="st0" d="M97.7,55.2v9.7H96v-23h5.5c4.4,0,8,1.8,8,6.4c0,3.4-2,5.4-4.8,6.4l5.4,10.1h-2l-5.1-9.7
		c-0.4,0-0.9,0.1-1.3,0.1H97.7z M101.4,43.3h-3.7v10.4h3.6c3.9,0,6.4-1.8,6.4-5.3C107.7,44.7,105.3,43.3,101.4,43.3z"/>
	<path class="st0" d="M112.8,64.9h-1.6l6.3-22.9h4.7l5.7,22.9h-1.8l-1.5-6.2h-10.2L112.8,64.9z M118.7,43.3l-3.8,13.8h9.4l-3.4-13.8
		H118.7z"/>
	<path class="st0" d="M136.3,65.2c-2.3,0-5-1-6.8-2.3l0.7-1.4c1.4,1.2,3.9,2.2,6.2,2.2c3.3,0,5.2-2,5.2-4.9
		c0-6.6-11.8-4.2-11.8-11.8c0-3,2.5-5.5,6.9-5.5c2.9,0,5.2,0.9,6.4,1.7l-0.6,1.4c-0.9-0.6-3.1-1.5-5.7-1.5c-3.7,0-5.2,1.9-5.2,4.1
		c0,5.9,11.8,3.9,11.8,11.7C143.4,62.4,140.9,65.2,136.3,65.2z"/>
</g>
<g>
	<rect class="st1" width="57.9" height="9"/>
	<rect x="57.9" class="st2" width="87.1" height="9"/>
</g>
</svg>
